<svg width="70" height="70" viewBox="0 0 70 70" fill="none" xmlns="http://www.w3.org/2000/svg">
<g filter="url(#filter0_d_1853_3067)">
<path d="M35 20C26.7165 20 20 26.7165 20 35C20 43.2835 26.7165 50 35 50C43.2835 50 50 43.2835 50 35C50 26.7165 43.2835 20 35 20ZM41.4286 35.8036C41.4286 35.9509 41.308 36.0714 41.1607 36.0714H36.0714V41.1607C36.0714 41.308 35.9509 41.4286 35.8036 41.4286H34.1964C34.0491 41.4286 33.9286 41.308 33.9286 41.1607V36.0714H28.8393C28.692 36.0714 28.5714 35.9509 28.5714 35.8036V34.1964C28.5714 34.0491 28.692 33.9286 28.8393 33.9286H33.9286V28.8393C33.9286 28.692 34.0491 28.5714 34.1964 28.5714H35.8036C35.9509 28.5714 36.0714 28.692 36.0714 28.8393V33.9286H41.1607C41.308 33.9286 41.4286 34.0491 41.4286 34.1964V35.8036Z" fill="#2C345A"/>
</g>
<defs>
<filter id="filter0_d_1853_3067" x="0" y="0" width="70" height="70" filterUnits="userSpaceOnUse" color-interpolation-filters="sRGB">
<feFlood flood-opacity="0" result="BackgroundImageFix"/>
<feColorMatrix in="SourceAlpha" type="matrix" values="0 0 0 0 0 0 0 0 0 0 0 0 0 0 0 0 0 0 127 0" result="hardAlpha"/>
<feOffset/>
<feGaussianBlur stdDeviation="10"/>
<feColorMatrix type="matrix" values="0 0 0 0 0.478431 0 0 0 0 0.712941 0 0 0 0 0.988235 0 0 0 1 0"/>
<feBlend mode="normal" in2="BackgroundImageFix" result="effect1_dropShadow_1853_3067"/>
<feBlend mode="normal" in="SourceGraphic" in2="effect1_dropShadow_1853_3067" result="shape"/>
</filter>
</defs>
</svg>
