<svg width="21" height="21" viewBox="0 0 21 21" fill="none" xmlns="http://www.w3.org/2000/svg">
<path d="M4.90019 0V7V0ZM16.1002 0V7V0ZM4.20019 10.5H8.40019H4.20019ZM16.8002 10.5H12.6002H16.8002ZM4.20019 14.7H8.40019H4.20019ZM12.6002 14.7H16.8002H12.6002ZM2.1002 3.5H18.9002C19.2715 3.5 19.6276 3.6475 19.8901 3.91005C20.1527 4.1726 20.3002 4.5287 20.3002 4.9V18.9C20.3002 19.2713 20.1527 19.6274 19.8901 19.8899C19.6276 20.1525 19.2715 20.3 18.9002 20.3H2.1002C1.72889 20.3 1.3728 20.1525 1.11025 19.8899C0.847695 19.6274 0.700195 19.2713 0.700195 18.9V4.9C0.700195 4.5287 0.847695 4.1726 1.11025 3.91005C1.3728 3.6475 1.72889 3.5 2.1002 3.5V3.5Z" stroke="#1A7818"/>
</svg>
