<svg width="24" height="19" viewBox="0 0 24 19" fill="none" xmlns="http://www.w3.org/2000/svg">
<path d="M21 3H18C18 1.35 16.65 0 15 0H3C1.35 0 0 1.35 0 3V10C0 11.65 1.35 13 3 13V16L6 13C6 14.65 7.35 16 9 16H17L20 19V16H21C22.65 16 24 14.65 24 13V6C24 4.35 22.65 3 21 3ZM3 11C2.458 11 2 10.542 2 10V3C2 2.458 2.458 2 3 2H15C15.542 2 16 2.458 16 3V4H9.5C8.83712 4.00053 8.20154 4.26409 7.73282 4.73282C7.26409 5.20154 7.00053 5.83712 7 6.5V11H3ZM22 13C22 13.542 21.542 14 21 14H9C8.458 14 8 13.542 8 13V6.5C8 5.673 8.673 5 9.5 5H21C21.542 5 22 5.458 22 6V13Z" fill="#5B2E15"/>
</svg>
