<svg width="23" height="23" viewBox="0 0 23 23" fill="none" xmlns="http://www.w3.org/2000/svg">
<path d="M21.8709 8.14802C21.4546 8.36008 21.0115 8.51481 20.5536 8.60802C20.7849 9.31706 20.9048 10.0577 20.9091 10.8035C20.8932 11.8734 20.6551 12.9283 20.21 13.9013C19.7649 14.8744 19.1224 15.7443 18.3233 16.4559C18.2533 16.5209 18.1973 16.5996 18.1589 16.6871C18.1206 16.7746 18.1006 16.8691 18.1003 16.9647V20.6865L15.0476 18.742C14.9624 18.6881 14.8666 18.6534 14.7667 18.6402C14.6669 18.6269 14.5653 18.6355 14.4691 18.6653C13.3949 18.9989 12.2764 19.1681 11.1515 19.1671C5.77091 19.1671 1.39394 15.4174 1.39394 10.8035C1.39394 6.18953 5.77091 2.43984 11.1515 2.43984C12.2252 2.4397 13.2933 2.59464 14.3227 2.89984C14.3662 2.43711 14.4717 1.98233 14.6364 1.54772C13.5041 1.21747 12.3309 1.04853 11.1515 1.0459C5.00424 1.0459 0 5.42287 0 10.8035C0 16.1841 5.00424 20.5611 11.1515 20.5611C12.3016 20.5597 13.4461 20.4002 14.5527 20.0871L18.407 22.5404C18.5122 22.608 18.6336 22.6459 18.7586 22.6504C18.8835 22.6548 19.0073 22.6256 19.1171 22.5657C19.2268 22.5058 19.3185 22.4176 19.3824 22.3101C19.4463 22.2027 19.4801 22.08 19.4803 21.955V17.2644C20.3524 16.4278 21.0483 15.4252 21.5271 14.3156C22.0059 13.206 22.2578 12.0119 22.2682 10.8035C22.2758 9.90297 22.1418 9.00686 21.8709 8.14802Z" fill="#2C345A"/>
<path d="M6.27271 10.1064C6.08787 10.1064 5.91059 10.1799 5.77988 10.3106C5.64918 10.4413 5.57574 10.6186 5.57574 10.8034C5.57574 10.9883 5.64918 11.1655 5.77988 11.2962C5.91059 11.427 6.08787 11.5004 6.27271 11.5004H16.0303C16.2151 11.5004 16.3924 11.427 16.5231 11.2962C16.6538 11.1655 16.7273 10.9883 16.7273 10.8034C16.7273 10.6186 16.6538 10.4413 16.5231 10.3106C16.3924 10.1799 16.2151 10.1064 16.0303 10.1064H6.27271Z" fill="#2C345A"/>
<path d="M8.53785 13.5908C8.353 13.5908 8.17573 13.6643 8.04502 13.795C7.91431 13.9257 7.84088 14.1029 7.84088 14.2878C7.84088 14.4726 7.91431 14.6499 8.04502 14.7806C8.17573 14.9113 8.353 14.9848 8.53785 14.9848H13.7651C13.95 14.9848 14.1272 14.9113 14.258 14.7806C14.3887 14.6499 14.4621 14.4726 14.4621 14.2878C14.4621 14.1029 14.3887 13.9257 14.258 13.795C14.1272 13.6643 13.95 13.5908 13.7651 13.5908H8.53785Z" fill="#2C345A"/>
<path d="M5.77094 7.31806C5.77094 7.50291 5.84437 7.68019 5.97507 7.8109C6.10578 7.9416 6.28306 8.01503 6.4679 8.01503H15.8352C15.9513 8.01293 16.065 7.98187 16.166 7.92466C16.267 7.86745 16.3521 7.78592 16.4137 7.68746C16.0038 7.38623 15.6399 7.02702 15.3334 6.62109H6.4679C6.28306 6.62109 6.10578 6.69452 5.97507 6.82523C5.84437 6.95594 5.77094 7.13322 5.77094 7.31806Z" fill="#2C345A"/>
<path d="M19.5151 6.9697C21.4398 6.9697 23 5.40948 23 3.48485C23 1.56022 21.4398 0 19.5151 0C17.5905 0 16.0303 1.56022 16.0303 3.48485C16.0303 5.40948 17.5905 6.9697 19.5151 6.9697Z" fill="#FF6050"/>
</svg>
