<svg width="29" height="21" viewBox="0 0 29 21" fill="none" xmlns="http://www.w3.org/2000/svg">
<path d="M15.0916 0.172422C14.9201 0.0606829 14.7088 0 14.4913 0C14.2738 0 14.0625 0.0606829 13.891 0.172422L0 9.2228L1.20157 10.4925L2.9 9.38596V19.3846C2.90102 19.8128 3.10504 20.2232 3.46739 20.5259C3.82974 20.8287 4.3209 20.9991 4.83333 21H24.1667C24.6791 20.9991 25.1703 20.8287 25.5326 20.5259C25.895 20.2232 26.099 19.8128 26.1 19.3846V9.39323L27.7984 10.4998L29 9.23007L15.0916 0.172422ZM16.4333 19.3846H12.5667V12.9229H16.4333V19.3846ZM18.3667 19.3846V12.9229C18.3662 12.4946 18.1623 12.084 17.7998 11.7811C17.4374 11.4783 16.9459 11.3079 16.4333 11.3075H12.5667C12.0541 11.3079 11.5626 11.4783 11.2002 11.7811C10.8377 12.084 10.6338 12.4946 10.6333 12.9229V19.3846H4.83333V8.12674L14.5 1.83469L24.1667 8.13482V19.3846H18.3667Z" fill="#DEE4FF"/>
</svg>
