<svg width="30" height="28" viewBox="0 0 30 28" fill="none" xmlns="http://www.w3.org/2000/svg">
<path d="M28.3333 5.25H21.6667V1.75C21.6667 0.782031 20.9219 0 20 0H10C9.07812 0 8.33333 0.782031 8.33333 1.75V5.25H1.66667C0.744792 5.25 0 6.03203 0 7V27.125C0 27.6063 0.375 28 0.833333 28H29.1667C29.625 28 30 27.6063 30 27.125V7C30 6.03203 29.2552 5.25 28.3333 5.25ZM8.33333 23.8438C8.33333 24.2047 8.05208 24.5 7.70833 24.5H5.625C5.28125 24.5 5 24.2047 5 23.8438V21.6562C5 21.2953 5.28125 21 5.625 21H7.70833C8.05208 21 8.33333 21.2953 8.33333 21.6562V23.8438ZM8.33333 16.8438C8.33333 17.2047 8.05208 17.5 7.70833 17.5H5.625C5.28125 17.5 5 17.2047 5 16.8438V14.6562C5 14.2953 5.28125 14 5.625 14H7.70833C8.05208 14 8.33333 14.2953 8.33333 14.6562V16.8438ZM16.6667 23.8438C16.6667 24.2047 16.3854 24.5 16.0417 24.5H13.9583C13.6146 24.5 13.3333 24.2047 13.3333 23.8438V21.6562C13.3333 21.2953 13.6146 21 13.9583 21H16.0417C16.3854 21 16.6667 21.2953 16.6667 21.6562V23.8438ZM16.6667 16.8438C16.6667 17.2047 16.3854 17.5 16.0417 17.5H13.9583C13.6146 17.5 13.3333 17.2047 13.3333 16.8438V14.6562C13.3333 14.2953 13.6146 14 13.9583 14H16.0417C16.3854 14 16.6667 14.2953 16.6667 14.6562V16.8438ZM17.5 7.54688C17.5 7.72734 17.3594 7.875 17.1875 7.875H15.8333V9.29688C15.8333 9.47734 15.6927 9.625 15.5208 9.625H14.4792C14.3073 9.625 14.1667 9.47734 14.1667 9.29688V7.875H12.8125C12.6406 7.875 12.5 7.72734 12.5 7.54688V6.45312C12.5 6.27266 12.6406 6.125 12.8125 6.125H14.1667V4.70312C14.1667 4.52266 14.3073 4.375 14.4792 4.375H15.5208C15.6927 4.375 15.8333 4.52266 15.8333 4.70312V6.125H17.1875C17.3594 6.125 17.5 6.27266 17.5 6.45312V7.54688ZM25 23.8438C25 24.2047 24.7187 24.5 24.375 24.5H22.2917C21.9479 24.5 21.6667 24.2047 21.6667 23.8438V21.6562C21.6667 21.2953 21.9479 21 22.2917 21H24.375C24.7187 21 25 21.2953 25 21.6562V23.8438ZM25 16.8438C25 17.2047 24.7187 17.5 24.375 17.5H22.2917C21.9479 17.5 21.6667 17.2047 21.6667 16.8438V14.6562C21.6667 14.2953 21.9479 14 22.2917 14H24.375C24.7187 14 25 14.2953 25 14.6562V16.8438Z" fill="#6675BC"/>
</svg>
