<svg width="18" height="22" viewBox="0 0 18 22" fill="none" xmlns="http://www.w3.org/2000/svg">
<path d="M15.2293 0.166748C15.5494 0.166748 15.8664 0.229796 16.1621 0.352292C16.4579 0.474788 16.7266 0.654332 16.9529 0.880675C17.1792 1.10702 17.3588 1.37573 17.4813 1.67146C17.6038 1.96719 17.6668 2.28415 17.6668 2.60425V19.4013C17.6668 19.7214 17.6038 20.0384 17.4813 20.3341C17.3588 20.6299 17.1792 20.8986 16.9529 21.1249C16.7266 21.3512 16.4579 21.5308 16.1621 21.6533C15.8664 21.7758 15.5494 21.8388 15.2293 21.8388H2.771C2.4509 21.8388 2.13394 21.7758 1.83821 21.6533C1.54247 21.5308 1.27377 21.3512 1.04742 21.1249C0.821081 20.8986 0.641535 20.6299 0.51904 20.3341C0.396544 20.0384 0.333496 19.7214 0.333496 19.4013V2.60425C0.33342 1.98661 0.567816 1.39197 0.989313 0.940515C1.41081 0.489055 1.98797 0.214439 2.60416 0.172165L2.771 0.166748H15.2293ZM16.0418 15.3334H1.9585V19.4013C1.9585 19.8498 2.3225 20.2138 2.771 20.2138H15.2293C15.4448 20.2138 15.6515 20.1282 15.8039 19.9759C15.9562 19.8235 16.0418 19.6168 16.0418 19.4013V15.3334ZM4.39708 16.9584H13.6043C13.8102 16.9585 14.0083 17.0367 14.1588 17.1772C14.3092 17.3178 14.4007 17.5102 14.4147 17.7155C14.4287 17.9209 14.3643 18.124 14.2344 18.2837C14.1045 18.4433 13.9188 18.5478 13.7148 18.5758L13.6043 18.5834H4.39708C4.19131 18.5831 3.99334 18.5047 3.84312 18.3641C3.69291 18.2234 3.60164 18.0311 3.58776 17.8258C3.57387 17.6205 3.63839 17.4175 3.7683 17.258C3.8982 17.0984 4.08382 16.994 4.28766 16.966L4.39708 16.9584H13.6043H4.39708ZM15.2293 1.79175H2.771L2.6605 1.79933C2.46598 1.82603 2.28771 1.92227 2.15866 2.07024C2.02961 2.21821 1.9585 2.40791 1.9585 2.60425V13.7084H4.66683V11.2655C4.66683 10.5646 5.19983 9.98825 5.88233 9.91891L6.021 9.91133H11.9793C12.6802 9.91133 13.2577 10.4443 13.3259 11.1279L13.3335 11.2655V13.7084H16.0418V2.60425C16.0418 2.38876 15.9562 2.1821 15.8039 2.02972C15.6515 1.87735 15.4448 1.79175 15.2293 1.79175ZM11.7085 11.5363H6.29183V13.7084H11.7085V11.5363ZM9.00016 3.41133C9.71846 3.41133 10.4073 3.69667 10.9152 4.20458C11.4232 4.71249 11.7085 5.40137 11.7085 6.11966C11.7085 6.83796 11.4232 7.52683 10.9152 8.03474C10.4073 8.54266 9.71846 8.828 9.00016 8.828C8.28187 8.828 7.59299 8.54266 7.08508 8.03474C6.57717 7.52683 6.29183 6.83796 6.29183 6.11966C6.29183 5.40137 6.57717 4.71249 7.08508 4.20458C7.59299 3.69667 8.28187 3.41133 9.00016 3.41133ZM9.00016 5.03633C8.71284 5.03633 8.43729 5.15047 8.23413 5.35363C8.03097 5.5568 7.91683 5.83235 7.91683 6.11966C7.91683 6.40698 8.03097 6.68253 8.23413 6.8857C8.43729 7.08886 8.71284 7.203 9.00016 7.203C9.28748 7.203 9.56303 7.08886 9.76619 6.8857C9.96936 6.68253 10.0835 6.40698 10.0835 6.11966C10.0835 5.83235 9.96936 5.5568 9.76619 5.35363C9.56303 5.15047 9.28748 5.03633 9.00016 5.03633Z" fill="#2C345A"/>
</svg>
