<svg width="22" height="23" viewBox="0 0 22 23" fill="none" xmlns="http://www.w3.org/2000/svg">
<path d="M10.8821 7.56836C9.87827 7.56836 8.91556 7.96713 8.20575 8.67694C7.49594 9.38675 7.09717 10.3495 7.09717 11.3533C7.09717 12.3571 7.49594 13.3198 8.20575 14.0296C8.91556 14.7394 9.87827 15.1382 10.8821 15.1382C11.8859 15.1382 12.8486 14.7394 13.5584 14.0296C14.2682 13.3198 14.667 12.3571 14.667 11.3533C14.667 10.3495 14.2682 9.38675 13.5584 8.67694C12.8486 7.96713 11.8859 7.56836 10.8821 7.56836V7.56836ZM8.98963 11.3533C8.98963 10.8514 9.18901 10.37 9.54392 10.0151C9.89883 9.66021 10.3802 9.46082 10.8821 9.46082C11.384 9.46082 11.8654 9.66021 12.2203 10.0151C12.5752 10.37 12.7746 10.8514 12.7746 11.3533C12.7746 11.8552 12.5752 12.3366 12.2203 12.6915C11.8654 13.0464 11.384 13.2457 10.8821 13.2457C10.3802 13.2457 9.89883 13.0464 9.54392 12.6915C9.18901 12.3366 8.98963 11.8552 8.98963 11.3533V11.3533Z" fill="#2C345A"/>
<path d="M15.8366 4.53635C15.4875 4.60047 15.1273 4.5235 14.835 4.32233C14.5426 4.12116 14.342 3.81223 14.2772 3.46333L13.7851 0.7836C13.761 0.653101 13.6987 0.532709 13.606 0.437696C13.5133 0.342683 13.3946 0.277329 13.2647 0.249925C11.6931 -0.0833085 10.0692 -0.0833085 8.49759 0.249925C8.36774 0.277329 8.24895 0.342683 8.1563 0.437696C8.06364 0.532709 8.0013 0.653101 7.97716 0.7836L7.48702 3.46333C7.45122 3.65418 7.37449 3.83502 7.2621 3.99337C7.14971 4.15172 7.00433 4.28383 6.83597 4.3806C6.66762 4.47737 6.48029 4.53649 6.28688 4.55391C6.09348 4.57132 5.8986 4.54661 5.71567 4.48147L3.14382 3.56552C3.01902 3.52082 2.88379 3.51405 2.75515 3.54604C2.62652 3.57803 2.51022 3.64736 2.42089 3.7453C1.34408 4.93188 0.528432 6.3323 0.0326072 7.85762C-0.00834894 7.98367 -0.0107779 8.11906 0.0256308 8.24649C0.0620394 8.37392 0.135631 8.48759 0.236993 8.57297L2.32249 10.3349C2.47067 10.4599 2.58977 10.6158 2.67146 10.7917C2.75316 10.9675 2.79549 11.1591 2.79549 11.353C2.79549 11.5469 2.75316 11.7385 2.67146 11.9143C2.58977 12.0902 2.47067 12.2461 2.32249 12.3711L0.236993 14.133C0.135631 14.2184 0.0620394 14.3321 0.0256308 14.4595C-0.0107779 14.5869 -0.00834894 14.7223 0.0326072 14.8484C0.529335 16.3729 1.34402 17.7745 2.42279 18.9607C2.51211 19.0586 2.62841 19.128 2.75705 19.16C2.88569 19.192 3.02091 19.1852 3.14571 19.1405L5.71946 18.2245C5.90236 18.1587 6.0974 18.1335 6.29103 18.1506C6.48466 18.1677 6.67225 18.2268 6.84078 18.3236C7.00931 18.4205 7.15474 18.5529 7.26699 18.7116C7.37923 18.8703 7.45561 19.0515 7.4908 19.2427L7.97906 21.9224C8.02826 22.1873 8.23454 22.3993 8.49948 22.4542C10.0717 22.7875 11.6963 22.7875 13.2685 22.4542C13.3978 22.4268 13.5162 22.3617 13.6085 22.267C13.7008 22.1723 13.7629 22.0524 13.787 21.9224L14.2791 19.2427C14.3149 19.0518 14.3916 18.871 14.504 18.7126C14.6164 18.5543 14.7618 18.4222 14.9301 18.3254C15.0985 18.2286 15.2858 18.1695 15.4792 18.1521C15.6726 18.1347 15.8675 18.1594 16.0504 18.2245L18.6223 19.1405C18.8777 19.2313 19.1635 19.1594 19.3452 18.9607C20.422 17.7741 21.2376 16.3737 21.7335 14.8484C21.7744 14.7223 21.7769 14.5869 21.7404 14.4595C21.704 14.3321 21.6304 14.2184 21.5291 14.133L19.4436 12.3711C19.2951 12.2463 19.1758 12.0904 19.0939 11.9145C19.012 11.7387 18.9695 11.547 18.9695 11.353C18.9695 11.159 19.012 10.9673 19.0939 10.7915C19.1758 10.6156 19.2951 10.4597 19.4436 10.3349L21.5291 8.57297C21.6304 8.48759 21.704 8.37392 21.7404 8.24649C21.7769 8.11906 21.7744 7.98367 21.7335 7.85762C21.2362 6.33296 20.4209 4.93127 19.3414 3.7453C19.2521 3.64736 19.1358 3.57803 19.0071 3.54604C18.8785 3.51405 18.7433 3.52082 18.6185 3.56552L16.0447 4.48147C15.9764 4.50604 15.9061 4.52503 15.8347 4.53825L15.8366 4.53635ZM3.30846 5.63398L5.0817 6.26417C5.52292 6.42125 5.99298 6.48068 6.45942 6.43837C6.92586 6.39605 7.37755 6.253 7.7833 6.01908C8.18906 5.78517 8.5392 5.46596 8.80956 5.08352C9.07991 4.70108 9.26403 4.26451 9.3492 3.80397L9.68416 1.96828C10.4791 1.86903 11.2832 1.86903 12.0781 1.96828L12.415 3.80397C12.4996 4.26483 12.6833 4.70179 12.9535 5.08458C13.2237 5.46737 13.5739 5.78685 13.9799 6.02086C14.3858 6.25488 14.8377 6.39785 15.3044 6.43986C15.7711 6.48187 16.2413 6.42192 16.6825 6.26417L18.4519 5.63209C18.9345 6.26417 19.3357 6.95303 19.6442 7.68352L18.2173 8.88902C17.8587 9.19173 17.5706 9.56904 17.3729 9.99461C17.1753 10.4202 17.0729 10.8838 17.0729 11.353C17.0729 11.8222 17.1753 12.2858 17.3729 12.7114C17.5706 13.137 17.8587 13.5143 18.2173 13.817L19.6461 15.0225C19.3365 15.7537 18.9359 16.4429 18.4538 17.0739L16.6806 16.4418C16.2394 16.2848 15.7693 16.2253 15.3029 16.2676C14.8364 16.3099 14.3847 16.453 13.979 16.6869C13.5732 16.9208 13.2231 17.24 12.9527 17.6225C12.6824 18.0049 12.4983 18.4415 12.4131 18.902L12.0762 20.7377C11.2813 20.8371 10.4772 20.8371 9.68227 20.7377L9.34731 18.902C9.26274 18.4412 9.07898 18.0042 8.80877 17.6214C8.53857 17.2386 8.18837 16.9192 7.78244 16.6851C7.37651 16.4511 6.92456 16.3082 6.45789 16.2661C5.99122 16.2241 5.521 16.2841 5.0798 16.4418L3.31224 17.0739C2.83011 16.443 2.42953 15.7537 2.11999 15.0225L3.54691 13.8151C3.90512 13.5124 4.19299 13.1352 4.39045 12.7098C4.58791 12.2844 4.6902 11.821 4.6902 11.3521C4.6902 10.8831 4.58791 10.4197 4.39045 9.99433C4.19299 9.56894 3.90512 9.19173 3.54691 8.88902L2.1181 7.68352C2.42846 6.95303 2.82967 6.26417 3.31035 5.63209L3.30846 5.63398Z" fill="#2C345A"/>
</svg>
