<svg width="28" height="31" viewBox="0 0 28 31" fill="none" xmlns="http://www.w3.org/2000/svg">
<path d="M8.52174 14.3077C6.90737 14.3077 5.35913 13.6796 4.21761 12.5616C3.07608 11.4436 2.43478 9.92725 2.43478 8.34615V3.57692C2.43478 3.2607 2.56304 2.95744 2.79135 2.73383C3.01965 2.51023 3.3293 2.38462 3.65217 2.38462H4.86956C5.19244 2.38462 5.50208 2.259 5.73039 2.0354C5.95869 1.8118 6.08695 1.50853 6.08695 1.19231C6.08695 0.876088 5.95869 0.57282 5.73039 0.349219C5.50208 0.125618 5.19244 0 4.86956 0H3.65217C2.68356 0 1.75461 0.376853 1.0697 1.04766C0.384781 1.71846 0 2.62826 0 3.57692V8.34615C0.00156486 9.69315 0.33694 11.0196 0.977321 12.2117C1.6177 13.4038 2.54395 14.4258 3.67652 15.19C4.76466 16.1296 5.64712 17.2753 6.27064 18.5582C6.89416 19.841 7.2458 21.2342 7.30434 22.6538C7.30434 24.8674 8.20217 26.9903 9.8003 28.5555C11.3984 30.1207 13.566 31 15.8261 31C18.0862 31 20.2537 30.1207 21.8519 28.5555C23.45 26.9903 24.3478 24.8674 24.3478 22.6538V21.2946C25.4954 21.0044 26.4955 20.3143 27.1607 19.3535C27.8259 18.3928 28.1105 17.2274 27.9612 16.0759C27.8118 14.9243 27.2388 13.8657 26.3495 13.0983C25.4602 12.331 24.3156 11.9076 23.1304 11.9076C21.9452 11.9076 20.8007 12.331 19.9114 13.0983C19.0221 13.8657 18.449 14.9243 18.2997 16.0759C18.1503 17.2274 18.4349 18.3928 19.1001 19.3535C19.7653 20.3143 20.7654 21.0044 21.913 21.2946V22.6538C21.913 24.2349 21.2717 25.7513 20.1302 26.8693C18.9887 27.9873 17.4404 28.6154 15.8261 28.6154C14.2117 28.6154 12.6635 27.9873 11.522 26.8693C10.3804 25.7513 9.73913 24.2349 9.73913 22.6538C9.80075 21.2325 10.1562 19.8382 10.7839 18.5552C11.4117 17.2723 12.2987 16.1275 13.3913 15.19C14.5194 14.4231 15.4409 13.4 16.0769 12.2081C16.713 11.0162 17.0446 9.69103 17.0435 8.34615V3.57692C17.0435 2.62826 16.6587 1.71846 15.9738 1.04766C15.2889 0.376853 14.3599 0 13.3913 0H12.1739C11.851 0 11.5414 0.125618 11.3131 0.349219C11.0848 0.57282 10.9565 0.876088 10.9565 1.19231C10.9565 1.50853 11.0848 1.8118 11.3131 2.0354C11.5414 2.259 11.851 2.38462 12.1739 2.38462H13.3913C13.7142 2.38462 14.0238 2.51023 14.2521 2.73383C14.4804 2.95744 14.6087 3.2607 14.6087 3.57692V8.34615C14.6087 9.12903 14.4512 9.90425 14.1453 10.6275C13.8394 11.3508 13.3911 12.008 12.8259 12.5616C12.2606 13.1152 11.5896 13.5543 10.8511 13.8539C10.1126 14.1535 9.32109 14.3077 8.52174 14.3077ZM23.1304 19.0769C22.4847 19.0769 21.8654 18.8257 21.4088 18.3785C20.9522 17.9313 20.6956 17.3247 20.6956 16.6923C20.6956 16.0599 20.9522 15.4533 21.4088 15.0061C21.8654 14.5589 22.4847 14.3077 23.1304 14.3077C23.7762 14.3077 24.3955 14.5589 24.8521 15.0061C25.3087 15.4533 25.5652 16.0599 25.5652 16.6923C25.5652 17.3247 25.3087 17.9313 24.8521 18.3785C24.3955 18.8257 23.7762 19.0769 23.1304 19.0769Z" fill="#28CAE2"/>
</svg>
