<svg width="19" height="19" viewBox="0 0 19 19" fill="none" xmlns="http://www.w3.org/2000/svg">
<path fill-rule="evenodd" clip-rule="evenodd" d="M4.50016 0.333252C3.39509 0.333252 2.33529 0.772239 1.55388 1.55364C0.772483 2.33504 0.333496 3.39485 0.333496 4.49992C0.333496 5.60499 0.772483 6.66479 1.55388 7.4462C2.33529 8.2276 3.39509 8.66658 4.50016 8.66658C5.60523 8.66658 6.66504 8.2276 7.44644 7.4462C8.22784 6.66479 8.66683 5.60499 8.66683 4.49992C8.66683 3.39485 8.22784 2.33504 7.44644 1.55364C6.66504 0.772239 5.60523 0.333252 4.50016 0.333252ZM2.00016 4.49992C2.00016 3.83688 2.26355 3.20099 2.7324 2.73215C3.20124 2.26331 3.83712 1.99992 4.50016 1.99992C5.1632 1.99992 5.79909 2.26331 6.26793 2.73215C6.73677 3.20099 7.00016 3.83688 7.00016 4.49992C7.00016 5.16296 6.73677 5.79884 6.26793 6.26769C5.79909 6.73653 5.1632 6.99992 4.50016 6.99992C3.83712 6.99992 3.20124 6.73653 2.7324 6.26769C2.26355 5.79884 2.00016 5.16296 2.00016 4.49992ZM14.5002 0.333252C13.3951 0.333252 12.3353 0.772239 11.5539 1.55364C10.7725 2.33504 10.3335 3.39485 10.3335 4.49992C10.3335 5.60499 10.7725 6.66479 11.5539 7.4462C12.3353 8.2276 13.3951 8.66658 14.5002 8.66658C15.6052 8.66658 16.665 8.2276 17.4464 7.4462C18.2278 6.66479 18.6668 5.60499 18.6668 4.49992C18.6668 3.39485 18.2278 2.33504 17.4464 1.55364C16.665 0.772239 15.6052 0.333252 14.5002 0.333252ZM12.0002 4.49992C12.0002 3.83688 12.2636 3.20099 12.7324 2.73215C13.2012 2.26331 13.8371 1.99992 14.5002 1.99992C15.1632 1.99992 15.7991 2.26331 16.2679 2.73215C16.7368 3.20099 17.0002 3.83688 17.0002 4.49992C17.0002 5.16296 16.7368 5.79884 16.2679 6.26769C15.7991 6.73653 15.1632 6.99992 14.5002 6.99992C13.8371 6.99992 13.2012 6.73653 12.7324 6.26769C12.2636 5.79884 12.0002 5.16296 12.0002 4.49992ZM0.333496 14.4999C0.333496 13.3948 0.772483 12.335 1.55388 11.5536C2.33529 10.7722 3.39509 10.3333 4.50016 10.3333C5.60523 10.3333 6.66504 10.7722 7.44644 11.5536C8.22784 12.335 8.66683 13.3948 8.66683 14.4999C8.66683 15.605 8.22784 16.6648 7.44644 17.4462C6.66504 18.2276 5.60523 18.6666 4.50016 18.6666C3.39509 18.6666 2.33529 18.2276 1.55388 17.4462C0.772483 16.6648 0.333496 15.605 0.333496 14.4999ZM4.50016 11.9999C3.83712 11.9999 3.20124 12.2633 2.7324 12.7322C2.26355 13.201 2.00016 13.8369 2.00016 14.4999C2.00016 15.163 2.26355 15.7988 2.7324 16.2677C3.20124 16.7365 3.83712 16.9999 4.50016 16.9999C5.1632 16.9999 5.79909 16.7365 6.26793 16.2677C6.73677 15.7988 7.00016 15.163 7.00016 14.4999C7.00016 13.8369 6.73677 13.201 6.26793 12.7322C5.79909 12.2633 5.1632 11.9999 4.50016 11.9999ZM14.5002 10.3333C13.3951 10.3333 12.3353 10.7722 11.5539 11.5536C10.7725 12.335 10.3335 13.3948 10.3335 14.4999C10.3335 15.605 10.7725 16.6648 11.5539 17.4462C12.3353 18.2276 13.3951 18.6666 14.5002 18.6666C15.6052 18.6666 16.665 18.2276 17.4464 17.4462C18.2278 16.6648 18.6668 15.605 18.6668 14.4999C18.6668 13.3948 18.2278 12.335 17.4464 11.5536C16.665 10.7722 15.6052 10.3333 14.5002 10.3333ZM12.0002 14.4999C12.0002 13.8369 12.2636 13.201 12.7324 12.7322C13.2012 12.2633 13.8371 11.9999 14.5002 11.9999C15.1632 11.9999 15.7991 12.2633 16.2679 12.7322C16.7368 13.201 17.0002 13.8369 17.0002 14.4999C17.0002 15.163 16.7368 15.7988 16.2679 16.2677C15.7991 16.7365 15.1632 16.9999 14.5002 16.9999C13.8371 16.9999 13.2012 16.7365 12.7324 16.2677C12.2636 15.7988 12.0002 15.163 12.0002 14.4999Z" fill="#4E1717"/>
</svg>
